# xmcd
#
# Track frame offsets: 
#        150
#        16447
#        30472
#        47710
#        69500
#        86932
#        102402
#        117340
#        134845
#        150452
#        170330
#        184205
#        219897
#        235532
#        251932
#        271290
#
# Disc length: 3855 seconds
#
# Revision: 3
# Processed by: cddbd v1.5.2PL0 Copyright (c) Steve Scherf et al.
# Submitted via: ExactAudioCopyFreeDBPlugin 1.0
#
DISCID=e00f0d10
DTITLE=Country Rock Classics - Country Rock Classics Vol.2
DYEAR=1994
DGENRE=Country Rock
TTITLE0=Exile - Kiss You All Over
TTITLE1=Loggings And Messina - My Music
TTITLE2=J.D. Souther - You're Only Lonely
TTITLE3=Michael Murphey - Wildfire
TTITLE4=The Byrds - Just A Reason
TTITLE5=Poco - Here We Go Again
TTITLE6=Flying Burrito Brothers - Easy To Get On
TTITLE7=The Charlie Daniels Band - Behind Your Eyes
TTITLE8=Ozark Mountain Daredevils - Take You Tonight
TTITLE9=David Allan Coe With Lacy J. Dalton - Gotta Serve Somebody
TTITLE10=New Riders Of The Purple Sage - Louisiana Lady
TTITLE11=The Allman Brothers Band - Southbound (Live)
TTITLE12=Ricky Van Shelton - I Am A Simple Man
TTITLE13=Merle Haggard And George Jones - C.C. Waterback
TTITLE14=T.G. Sheppard - One For The Money
TTITLE15=John Conlee - Domestic Life
EXTD=
EXTT0=
EXTT1=
EXTT2=
EXTT3=
EXTT4=
EXTT5=
EXTT6=
EXTT7=
EXTT8=
EXTT9=
EXTT10=
EXTT11=
EXTT12=
EXTT13=
EXTT14=
EXTT15=
PLAYORDER=
